<?xml version="1.0" encoding="utf-8"?>
<!-- Generator: Adobe Illustrator 19.0.0, SVG Export Plug-In . SVG Version: 6.00 Build 0)  -->
<svg version="1.1" id="Layer_1" xmlns="http://www.w3.org/2000/svg" xmlns:xlink="http://www.w3.org/1999/xlink" x="0px" y="0px"
	 viewBox="0 0 384.6 360.3" style="enable-background:new 0 0 384.6 360.3;" xml:space="preserve">
<style type="text/css">
	.st0{clip-path:url(#SVGID_1_);}
	.st1{fill:#4C2C81;stroke:#4C2C81;stroke-width:1.51;}
	.st2{fill:#856AAF;stroke:#856AAF;stroke-width:1.51;}
	.st3{fill:#562E8E;stroke:#562E8E;stroke-width:1.51;}
	.st4{fill:#502D85;stroke:#502D85;stroke-width:1.51;}
	.st5{fill:#997BB8;stroke:#997BB8;stroke-width:1.51;}
	.st6{fill:#8A6EB1;stroke:#8A6EB1;stroke-width:1.51;}
	.st7{fill:#9A7CB8;stroke:#9A7CB8;stroke-width:1.51;}
	.st8{fill:#6F52A2;stroke:#6F52A2;stroke-width:1.51;}
	.st9{fill:#674D9F;stroke:#674D9F;stroke-width:1.51;}
	.st10{fill:#7456A3;stroke:#7456A3;stroke-width:1.51;}
	.st11{fill:#603F98;stroke:#603F98;stroke-width:1.51;}
	.st12{fill:#7E60A9;stroke:#7E60A9;stroke-width:1.51;}
	.st13{fill:#562E8D;stroke:#562E8D;stroke-width:1.51;}
	.st14{fill:#9E80BA;stroke:#9E80BA;stroke-width:1.51;}
	.st15{fill:#5D3893;stroke:#5D3893;stroke-width:1.51;}
	.st16{fill:#9377B6;stroke:#9377B6;stroke-width:1.51;}
	.st17{fill:#603D98;stroke:#603D98;stroke-width:1.51;}
	.st18{fill:#7B5DA7;stroke:#7B5DA7;stroke-width:1.51;}
	.st19{fill:#9278B6;stroke:#9278B6;stroke-width:1.51;}
	.st20{fill:#8B71B2;stroke:#8B71B2;stroke-width:1.51;}
	.st21{fill:#7F62AA;stroke:#7F62AA;stroke-width:1.51;}
	.st22{fill:#9F81BB;stroke:#9F81BB;stroke-width:1.51;}
	.st23{fill:#664A9E;stroke:#664A9E;stroke-width:1.51;}
	.st24{fill:#7759A5;stroke:#7759A5;stroke-width:1.51;}
	.st25{fill:#A283BC;stroke:#A283BC;stroke-width:1.51;}
	.st26{fill:#582F8F;stroke:#582F8F;stroke-width:1.51;}
	.st27{fill:#512D85;stroke:#512D85;stroke-width:1.51;}
	.st28{fill:#BDB8DA;stroke:#BDB8DA;stroke-width:1.51;}
	.st29{fill:#AB90C3;stroke:#AB90C3;stroke-width:1.51;}
	.st30{fill:#684FA0;stroke:#684FA0;stroke-width:1.51;}
	.st31{fill:#7158A5;stroke:#7158A5;stroke-width:1.51;}
	.st32{fill:#5A3191;stroke:#5A3191;stroke-width:1.51;}
	.st33{fill:#8D74B4;stroke:#8D74B4;stroke-width:1.51;}
	.st34{fill:#8C74B4;stroke:#8C74B4;stroke-width:1.51;}
	.st35{fill:#836AAF;stroke:#836AAF;stroke-width:1.51;}
	.st36{fill:#532D88;stroke:#532D88;stroke-width:1.51;}
	.st37{fill:#816AAF;stroke:#816AAF;stroke-width:1.51;}
	.st38{fill:#795EA8;stroke:#795EA8;stroke-width:1.51;}
	.st39{fill:#775FA9;stroke:#775FA9;stroke-width:1.51;}
	.st40{fill:#5E3A96;stroke:#5E3A96;stroke-width:1.51;}
	.st41{fill:#522D86;stroke:#522D86;stroke-width:1.51;}
	.st42{fill:#967BB8;stroke:#967BB8;stroke-width:1.51;}
	.st43{fill:#A588BF;stroke:#A588BF;stroke-width:1.51;}
	.st44{fill:#63429A;stroke:#63429A;stroke-width:1.51;}
	.st45{fill:#592E8F;stroke:#592E8F;stroke-width:1.51;}
	.st46{fill:#9D82BC;stroke:#9D82BC;stroke-width:1.51;}
	.st47{fill:#A188BF;stroke:#A188BF;stroke-width:1.51;}
	.st48{fill:#9980BB;stroke:#9980BB;stroke-width:1.51;}
	.st49{fill:#8370B3;stroke:#8370B3;stroke-width:1.51;}
	.st50{fill:#A68BC1;stroke:#A68BC1;stroke-width:1.51;}
	.st51{fill:#B8B2D7;stroke:#B8B2D7;stroke-width:1.51;}
	.st52{fill:#A48DC2;stroke:#A48DC2;stroke-width:1.51;}
	.st53{fill:#5B3594;stroke:#5B3594;stroke-width:1.51;}
	.st54{fill:#64449B;stroke:#64449B;stroke-width:1.51;}
	.st55{fill:#7460AA;stroke:#7460AA;stroke-width:1.51;}
	.st56{fill:#5F3C97;stroke:#5F3C97;stroke-width:1.51;}
	.st57{fill:#8977B7;stroke:#8977B7;stroke-width:1.51;}
	.st58{fill:#9883BD;stroke:#9883BD;stroke-width:1.51;}
	.st59{fill:#927FBB;stroke:#927FBB;stroke-width:1.51;}
	.st60{fill:#9C89C0;stroke:#9C89C0;stroke-width:1.51;}
	.st61{fill:#A28DC2;stroke:#A28DC2;stroke-width:1.51;}
	.st62{fill:#6F5BA7;stroke:#6F5BA7;stroke-width:1.51;}
	.st63{fill:#A891C4;stroke:#A891C4;stroke-width:1.51;}
	.st64{fill:#5B3391;stroke:#5B3391;stroke-width:1.51;}
	.st65{fill:#AD96C7;stroke:#AD96C7;stroke-width:1.51;}
	.st66{fill:#7E68AE;stroke:#7E68AE;stroke-width:1.51;}
	.st67{fill:#907FBB;stroke:#907FBB;stroke-width:1.51;}
	.st68{fill:#7B68AE;stroke:#7B68AE;stroke-width:1.51;}
	.st69{fill:#8A7EB9;stroke:#8A7EB9;stroke-width:1.51;}
	.st70{fill:#A995C7;stroke:#A995C7;stroke-width:1.51;}
	.st71{fill:#684FA1;stroke:#684FA1;stroke-width:1.51;}
	.st72{fill:#5D3A96;stroke:#5D3A96;stroke-width:1.51;}
	.st73{fill:#64469C;stroke:#64469C;stroke-width:1.51;}
	.st74{fill:#8576B7;stroke:#8576B7;stroke-width:1.51;}
	.st75{fill:#806FB1;stroke:#806FB1;stroke-width:1.51;}
	.st76{fill:#64489C;stroke:#64489C;stroke-width:1.51;}
	.st77{fill:#B1A1CE;stroke:#B1A1CE;stroke-width:1.51;}
	.st78{fill:#9F90C5;stroke:#9F90C5;stroke-width:1.51;}
	.st79{fill:#A696C7;stroke:#A696C7;stroke-width:1.51;}
	.st80{fill:#725FA9;stroke:#725FA9;stroke-width:1.51;}
	.st81{fill:#AE9ACA;stroke:#AE9ACA;stroke-width:1.51;}
	.st82{fill:#7769AE;stroke:#7769AE;stroke-width:1.51;}
	.st83{fill:#6E57A5;stroke:#6E57A5;stroke-width:1.51;}
	.st84{fill:#9183BD;stroke:#9183BD;stroke-width:1.51;}
	.st85{fill:#9D91C5;stroke:#9D91C5;stroke-width:1.51;}
	.st86{fill:#968AC2;stroke:#968AC2;stroke-width:1.51;}
	.st87{fill:#7E70B3;stroke:#7E70B3;stroke-width:1.51;}
	.st88{fill:#B5ACD5;stroke:#B5ACD5;stroke-width:1.51;}
	.st89{fill:#796CB1;stroke:#796CB1;stroke-width:1.51;}
	.st90{fill:#7A6FB1;stroke:#7A6FB1;stroke-width:1.51;}
	.st91{fill:#B1A6D1;stroke:#B1A6D1;stroke-width:1.51;}
	.st92{fill:#AB9ECB;stroke:#AB9ECB;stroke-width:1.51;}
	.st93{fill:#897FBA;stroke:#897FBA;stroke-width:1.51;}
	.st94{fill:#694EA0;stroke:#694EA0;stroke-width:1.51;}
	.st95{fill:#ABA3D0;stroke:#ABA3D0;stroke-width:1.51;}
	.st96{fill:#A399C7;stroke:#A399C7;stroke-width:1.51;}
	.st97{fill:#A8A0CD;stroke:#A8A0CD;stroke-width:1.51;}
	.st98{fill:#8076B5;stroke:#8076B5;stroke-width:1.51;}
	.st99{fill:#837BB9;stroke:#837BB9;stroke-width:1.51;}
	.st100{fill:#9189BF;stroke:#9189BF;stroke-width:1.51;}
	.st101{fill:#978FC2;stroke:#978FC2;stroke-width:1.51;}
	.st102{fill:#623F99;stroke:#623F99;stroke-width:1.51;}
	.st103{fill:#65489D;stroke:#65489D;stroke-width:1.51;}
	.st104{fill:#9F98C7;stroke:#9F98C7;stroke-width:1.51;}
	.st105{fill:#918EC1;stroke:#918EC1;stroke-width:1.51;}
	.st106{fill:#7E79B7;stroke:#7E79B7;stroke-width:1.51;}
	.st107{fill:#B7B1D7;stroke:#B7B1D7;stroke-width:1.51;}
	.st108{fill:#684EA0;stroke:#684EA0;stroke-width:1.51;}
	.st109{fill:#7463AB;stroke:#7463AB;stroke-width:1.51;}
	.st110{fill:#715CA7;stroke:#715CA7;stroke-width:1.51;}
	.st111{fill:#857FBC;stroke:#857FBC;stroke-width:1.51;}
	.st112{fill:#B8B4D7;stroke:#B8B4D7;stroke-width:1.51;}
	.st113{fill:#A29FCB;stroke:#A29FCB;stroke-width:1.51;}
	.st114{fill:#B2AFD5;stroke:#B2AFD5;stroke-width:1.51;}
	.st115{fill:#725EA9;stroke:#725EA9;stroke-width:1.51;}
	.st116{fill:#7A70B2;stroke:#7A70B2;stroke-width:1.51;}
	.st117{fill:#6D55A4;stroke:#6D55A4;stroke-width:1.51;}
	.st118{fill:#ACAAD3;stroke:#ACAAD3;stroke-width:1.51;}
	.st119{fill:#9997C7;stroke:#9997C7;stroke-width:1.51;}
	.st120{fill:#A19FCB;stroke:#A19FCB;stroke-width:1.51;}
	.st121{fill:#ABA9D0;stroke:#ABA9D0;stroke-width:1.51;}
	.st122{fill:#B3AFD6;stroke:#B3AFD6;stroke-width:1.51;}
	.st123{fill:#8B87BE;stroke:#8B87BE;stroke-width:1.51;}
	.st124{fill:#7F74B5;stroke:#7F74B5;stroke-width:1.51;}
	.st125{fill:#8E8ABF;stroke:#8E8ABF;stroke-width:1.51;}
	.st126{fill:#9591C3;stroke:#9591C3;stroke-width:1.51;}
	.st127{fill:#C1BCDA;stroke:#C1BCDA;stroke-width:1.51;}
	.st128{fill:#C1BDDA;stroke:#C1BDDA;stroke-width:1.51;}
	.st129{fill:#735BA7;stroke:#735BA7;stroke-width:1.51;}
	.st130{fill:#7863AB;stroke:#7863AB;stroke-width:1.51;}
	.st131{fill:#7C6BB0;stroke:#7C6BB0;stroke-width:1.51;}
	.st132{fill:#9C97C6;stroke:#9C97C6;stroke-width:1.51;}
	.st133{fill:#7258A5;stroke:#7258A5;stroke-width:1.51;}
	.st134{fill:#8783BE;stroke:#8783BE;stroke-width:1.51;}
	.st135{fill:#BBB9D8;stroke:#BBB9D8;stroke-width:1.51;}
	.st136{fill:#7E71B3;stroke:#7E71B3;stroke-width:1.51;}
	.st137{fill:#8680BC;stroke:#8680BC;stroke-width:1.51;}
	.st138{fill:#A7A5CE;stroke:#A7A5CE;stroke-width:1.51;}
	.st139{fill:#B0ADD3;stroke:#B0ADD3;stroke-width:1.51;}
	.st140{fill:#B7B4D6;stroke:#B7B4D6;stroke-width:1.51;}
	.st141{fill:#AEACD2;stroke:#AEACD2;stroke-width:1.51;}
	.st142{fill:#8881BB;stroke:#8881BB;stroke-width:1.51;}
	.st143{fill:#A6A4CD;stroke:#A6A4CD;stroke-width:1.51;}
	.st144{fill:#908CC1;stroke:#908CC1;stroke-width:1.51;}
	.st145{fill:#9994C4;stroke:#9994C4;stroke-width:1.51;}
	.st146{fill:#795FA9;stroke:#795FA9;stroke-width:1.51;}
	.st147{fill:#785DA8;stroke:#785DA8;stroke-width:1.51;}
	.st148{fill:#C5C3DD;stroke:#C5C3DD;stroke-width:1.51;}
	.st149{fill:#C5C1DC;stroke:#C5C1DC;stroke-width:1.51;}
	.st150{fill:#C0BBD9;stroke:#C0BBD9;stroke-width:1.51;}
	.st151{fill:#8378B6;stroke:#8378B6;stroke-width:1.51;}
	.st152{fill:#8171B2;stroke:#8171B2;stroke-width:1.51;}
	.st153{fill:#B9B7D8;stroke:#B9B7D8;stroke-width:1.51;}
	.st154{fill:#9895C4;stroke:#9895C4;stroke-width:1.51;}
	.st155{fill:#AEADD2;stroke:#AEADD2;stroke-width:1.51;}
	.st156{fill:#A29EC9;stroke:#A29EC9;stroke-width:1.51;}
	.st157{fill:#B1B0D4;stroke:#B1B0D4;stroke-width:1.51;}
	.st158{fill:#806DB1;stroke:#806DB1;stroke-width:1.51;}
	.st159{fill:#BFBCDA;stroke:#BFBCDA;stroke-width:1.51;}
	.st160{fill:#8679B6;stroke:#8679B6;stroke-width:1.51;}
	.st161{fill:#B7B5D7;stroke:#B7B5D7;stroke-width:1.51;}
	.st162{fill:#7E79B7;}
	.st163{fill:#63429A;}
</style>
<g>
	<defs>
		<path id="SVGID_3_" d="M306.8,42c1.2,7.5,5.4,12,5.4,12s8.9,2.4,18,8.5s13.8,14,13.8,14s0,0,7.9-1.6c10.5-2.2,15.5-4,15.5-4
			s1.5,2.4-5.1,16.1c-5.1,7-10.9,10.9-10.9,10.9s0.5,12.1-3.3,24.1s-14.7,19.3-14.7,19.3s12.2,0.7,14,7.6c1.2,4.5,0,8.5,0,8.5
			l-135.8,0.5c0,0-18.2-0.2-20.5-13s4.5-15.8,6.9-32.6c2.4-16.8-0.1-38.4-18.6-50.9s-45.2-15-39.7-10.7c5.6,4.3,39.7,10.7,47.7,47.8
			c3.5,16-3,38.4-22.5,52.4s-48.3,17.5-61.8,11.5c-23.2-10.5,23.6-53.3-18.4-63.2c-17.7-4.2-37.5,2.6-49.7,14.3
			c-6.2,6-5.9,6.3-6.7,7.4c-2.3,3.4-1.7,2.1-3.5,5.6c-0.3,0.5-0.4,0.6-0.7,1.3c-1-0.1-0.2,0-1.3-0.1c-1.7-0.2-1.8-0.2-2.3-0.2
			c-1.5-0.1-2-0.2-3.6-0.3c-7-0.6-9.7-0.9-9.7-0.9s1.6-28.3,31.6-66.8s96.5-37.5,96.5-37.5s44.5,0,74,23.5s40,31.7,40,31.7
			s6.5-10.1,15.8-15.9c9.3-5.7,18.4-7.8,18.4-7.8s0.4-4.6,7.4-13.6c6.9-9,14.9-12.5,14.9-12.5S305.9,36,306.8,42z M124.6,321.3
			c15-14.3,26-29.7,26-49.8c0-18.5-6.3-34.1-19-46.7c-12.9-12.6-30-20-51.2-22.3c-18.5-2-33.3-7.7-44.6-17.2
			c-11.1-9.5-18.2-21.4-16.6-35.3c1.6-14,5.2-22.2,5.2-22.2s0,0-16.9-1.5c0,0,0,0-0.2,1.6c-0.1,0.6-0.5,2-1.9,22.1
			c-1.3,18.7,6.6,34.6,19.7,47.5c13.2,12.9,30.7,20.5,52.6,22.7c18,2,32.3,7.6,42.9,16.8c10.8,9.3,16.3,20.8,16.3,34.5
			c0,16-0.9,34.3-13.2,45.5C111.1,328.2,109.6,335.6,124.6,321.3z M130.9,322c13.1-14.9,19.7-33,19.7-54.4h-12.9
			c0,17.2-5.3,32-15.8,44.2c-10.5,12.3-23.2,18.4-38,18.4c-16.1,0-30-5.2-41.6-15.7c-11.4-10.4-17.1-23.1-17.1-38
			c0-12.8,5-23.5,15.1-32.1c9.9-8.6,1.7-23.1-10.3-11.4c-11.8,11.7-17.7,26.2-17.7,43.5c0,18.8,7,34.8,20.9,48.2
			c14,13.3,30.8,20,50.6,20C102.3,344.7,118,337.1,130.9,322z M337.1,326.1c-1.9,11.3-12.9,14.6-14.9,14.7c-1.4,0.1-2.2,0-2.3-1.1
			c0-0.8,0.5-1.1,2.3-1.9c1.8-0.8,7.1-3.5,8.8-9.6c1.7-6-1.1-21.3-24.2-27c-10.8-2.7-19.6-2.2-26.5-0.3c0.8,3.3,1.3,6.8,1,10.2
			c-0.6,7.4-6.4,12.2-12.2,15.4c-3.4,1.9-6.9,3-9.7,3.5c-2.3,0.6-5.4,1.2-7.4,0.5c-4.5-1.5-6.4-5.9-2.1-14.4
			c2.3-4.6,8.1-11.4,16.7-16.7c-1.3-3.9-2.8-7.9-3.4-11.5c-1.1-7-1.2-11.2-1.2-11.2s-8.2,12.5-18.1,23.6c-0.6,0.6-1.1,1.3-1.7,1.9
			c1.1,4,1.9,8.2,1.6,12.3c-0.6,7.4-4.5,12.5-10.3,15.7c-3.1,1.7-6.4,2.8-9.1,3.4c-1.8,0.5-5.3,1.3-10.2,1c-2.7-0.2-5.2-0.7-6.5-1.9
			c-1.8-1.7-1.8-3.6-0.4-5.9c1.1-2,8.5-8.5,14.7-14.2c1.7-1.6,3.4-3.2,4.8-4.7l0-0.1c0,0,1.1-1.1,3-3.1c-1.4-4.5-3.3-9.2-4-13.3
			c-1.1-7-1.2-11.2-1.2-11.2s-8.7,15.9-17.2,28.4c-6.6,9.7-10.9,15.5-12.9,18.1l0,0.1c0,0-0.3,0.4-0.8,0.9c-0.2,0.3-0.4,0.5-0.4,0.5
			l0,0c-2.1,2.4-6.7,7-10.7,6.5c-10.8-1.4-4-22.9-4-22.9s-4.2,7.7-8.7,14.3c-3.6,5.3-6.9,9.8-12.7,9.1c-1.7-0.2-4.3-0.6-6.2-3
			c-4.4-5.4-6.6-17.8-4.7-27c1.6-7.8,6.8-21.1,14-29.5c7.2-8.4,18.2-14.1,25.9-13.1c12.4,1.6,5.9,18.9,5.9,18.9s0.4-0.8,0.7-0.8
			c0.4,0,2-2.1,5.7-0.2c3.8,2,2.5,4.6,2.5,4.9c0,0.6-6.8,15.8-10,25.7c-1.6,4.7-1.5,8.3-1.2,8.4c0.4,0,1.3-1.1,2.2-2.3l0,0
			c0,0,0.7-0.9,1.8-2.6c0.1-0.2,0.2-0.4,0.2-0.4l0,0c1.4-2,3.3-4.9,5.5-8.6c4.4-7.2,21.4-34.8,22.9-37.9c1.5-3.1,2.5-6.4,3.3-7.8
			c0.7-1.4,5.5-1.9,11-1.1c5.4,0.7,5.7,3.1,5.7,3.6c0,0.5-3.5,6.6-4.7,11.1c-1.2,4.5-0.9,6.8-0.9,10.7c0,2.5,1.2,5.9,2.5,9.7
			c6.8-8.5,19-24.8,20.6-29.6c1.1-3.3,2.5-6.4,3.3-7.7c0.7-1.4,5.5-1.9,11-1.1c5.4,0.7,5.7,3.1,5.7,3.6c0,0.5-3.5,6.6-4.7,11.1
			c-1.2,4.5-0.9,6.8-0.9,10.7c0,3.3,2,8,3.8,13.4c7.3-2.5,15.7-3.7,25.2-2.6C327.8,294.3,339.5,311.8,337.1,326.1z M186.3,273.8
			c-0.9-2.1-5.8-1.1-10.6,3.1c-3,2.6-8.5,9.6-11.4,15.7c-5.8,12.1-5.6,25.2-2.8,26.3c3.3,1.3,11.2-14.8,14.7-21.1
			C178.5,293.9,187.4,276.4,186.3,273.8z M232.6,312.8c0-0.2,0-0.4,0.1-0.7c-2,2-3.8,3.8-5.3,5.3c-2.7,2.6-9.3,8.1-9.3,8.1
			s-0.9,0.7-0.6,0.9c0.5,0.4,1.6,0.1,2.8-0.3C223.7,324.5,231.6,320.4,232.6,312.8z M270,309.5c0.2-1.4,0.1-3-0.2-4.6
			c-4.9,3.3-7.9,7-9.3,9.3c-3.6,5.8-4,7.7-3.2,8.4C261.5,321.6,268.8,318.9,270,309.5z M274.6,206.8c0.7,3.4,1.1,6.8,0.7,10.2
			c-0.9,7.4-6.8,12-12.7,15c-3.4,1.8-6.9,2.7-9.8,3.2c-2.3,0.6-5.4,1-7.4,0.3c-4.4-1.7-6.2-6.1-1.6-14.5c2.5-4.5,8.5-11.1,17.3-16.2
			c-1.2-3.9-2.6-8-3-11.6c-0.9-7.1-0.8-11.2-0.8-11.2s-8.6,12.3-18.8,23c-0.6,0.6-1.2,1.2-1.8,1.8c1,4,1.6,8.2,1.2,12.3
			c-0.9,7.4-5,12.4-10.8,15.4c-3.2,1.6-6.5,2.6-9.2,3.1c-1.8,0.5-5.4,1.1-10.2,0.6c-2.7-0.3-5.2-0.8-6.4-2.1c-1.7-1.8-1.6-3.6-0.2-6
			c1.2-2,8.8-8.2,15.2-13.7c1.8-1.5,3.5-3.1,5-4.6l0-0.1c0,0,1.2-1.1,3.1-3c-1.3-4.5-3-9.3-3.6-13.5c-0.9-7.1-0.8-11.2-0.8-11.2
			s-9.2,15.6-18.2,27.8c-6.9,9.5-11.4,15.1-13.5,17.6l0,0.1c0,0-0.3,0.4-0.8,0.9c-0.3,0.3-0.4,0.5-0.4,0.5l0,0
			c-2.2,2.3-7,6.8-10.9,6.1c-10.8-1.8-3.3-23-3.3-23s-4.5,7.6-9.2,14c-3.8,5.2-7.2,9.6-13,8.6c-1.7-0.3-4.3-0.7-6.1-3.2
			c-4.2-5.5-6-18.1-3.8-27.2c1.9-7.8,7.5-20.9,15-29.1s18.6-13.5,26.4-12.3c12.4,2,5.2,19.1,5.2,19.1s0.4-0.8,0.7-0.7
			c0.3,0,2.1-2.1,5.7,0c3.7,2.1,2.4,4.7,2.3,5c0,0.6-7.3,15.6-10.9,25.4c-1.7,4.7-1.7,8.3-1.5,8.3c0.4,0.1,1.4-1,2.3-2.2l0,0
			c0,0,0.7-0.9,1.9-2.6c0.2-0.2,0.2-0.3,0.2-0.3l0,0c1.4-1.9,3.4-4.8,5.8-8.4c4.7-7,22.5-34.1,24.2-37.1c1.6-3.1,2.8-6.3,3.5-7.6
			c0.8-1.3,5.6-1.7,11-0.7c5.4,0.9,5.6,3.3,5.5,3.8s-3.7,6.5-5,10.9c-1.3,4.4-1.1,6.8-1.3,10.7c-0.1,2.5,1,5.9,2.2,9.8
			c7.1-8.2,19.8-24.1,21.5-28.9c1.2-3.2,2.8-6.3,3.5-7.6c0.8-1.3,5.6-1.7,11-0.7c5.4,0.9,5.6,3.3,5.5,3.8c0,0.5-3.7,6.5-5,10.9
			c-1.3,4.4-1.1,6.8-1.3,10.7c-0.1,3.3,3,12.4,3.2,13.1C272.7,200.1,273.6,202.6,274.6,206.8z M181.5,176.5
			c-0.8-2.1-5.7-1.3-10.7,2.7c-3.1,2.5-8.8,9.3-11.9,15.3c-6.2,11.9-6.5,25-3.7,26.2c3.3,1.5,11.7-14.4,15.4-20.6
			C173,196.3,182.5,179.2,181.5,176.5z M226.4,217.1c0-0.2,0.1-0.4,0.1-0.7c-2,1.9-3.9,3.6-5.5,5.1c-2.8,2.5-9.6,7.8-9.6,7.8
			s-1,0.7-0.6,0.9c0.4,0.4,1.5,0.2,2.8-0.2C217.1,228.5,225.2,224.6,226.4,217.1z M264,215c0.2-1.4,0.2-3-0.1-4.7
			c-5,3.1-8.2,6.8-9.6,9c-3.8,5.6-4.3,7.6-3.5,8.3C255.1,226.8,262.4,224.4,264,215z M273.1,201.6c0.8,2.6,1,3.3,1,3.3l6.1-4
			c0,0,2.7,15.8,14.3,17.8c11.5,2,20.6-4.9,20.6-4.9s-3.5,10.2-7.5,15.8s-9.2,12.1-20.6,14.8c-11.3,2.7-27.9-2.4-27.9-2.4
			s-6.7-1.2-6.9,3c-0.1,4.2,8,5.3,8,5.3s17.4,4.8,31.5,2.3c14.1-2.5,23-13,28-22.5s29.4-66,26.5-69.1c-2.7-2.8-15.8-1.9-17.4-0.6
			c-1.5,1.3-11.6,37.6-11.6,37.6s-5,14.1-17.4,12.4c-9.3-1.3-4.7-12.9-4.7-12.9s13.5-34.3,11.8-35.6s-14.7-1-16.2,0.2
			c-1.5,1.2,0.1,13.6-11.5,26.4c-7.6,8.4-7.6,8.6-7.6,8.6S272.4,199,273.1,201.6z"/>
	</defs>
	<clipPath id="SVGID_1_">
		<use xlink:href="#SVGID_3_"  style="overflow:visible;"/>
	</clipPath>
	<g class="st0">
		<path class="st1" d="M304.6,362l-43.8,3.8l94.7-6.7L304.6,362z"/>
		<path class="st2" d="M351.4-103.7l-20,81L368.5-6L351.4-103.7z"/>
		<path class="st3" d="M324.2,230.2l25.9,73.9l27.1-79.7L324.2,230.2z"/>
		<path class="st4" d="M350.1,304l5.4,55.1l21.7-134.8L350.1,304z"/>
		<path class="st5" d="M363-226.8l-63.4,87.6l81-1.3L363-226.8z"/>
		<path class="st6" d="M351.4-103.7L368.5-6l12.1-134.4L351.4-103.7z"/>
		<path class="st7" d="M369.3-254.3l-6.3,27.5l17.5,86.4L369.3-254.3z"/>
		<path class="st8" d="M360.5,45.3l-38,40.9l66.8,33.4L360.5,45.3z"/>
		<path class="st9" d="M322.6,86.2l29.6,80.1l37.1-46.7L322.6,86.2z"/>
		<path class="st10" d="M368.5-6l-7.9,51.3l28.8,74.3L368.5-6z"/>
		<path class="st11" d="M352.2,166.3l25,58l12.1-104.7L352.2,166.3z"/>
		<path class="st12" d="M380.6-140.4L368.5-6l20.9,125.6L380.6-140.4z"/>
		<path class="st13" d="M324.2,230.2l-12.9,59.3l38.8,14.6L324.2,230.2z"/>
		<path class="st14" d="M285.8-210.9l13.8,71.8l63.4-87.6L285.8-210.9z"/>
		<path class="st15" d="M352.2,166.3l-28,63.8l53-5.8L352.2,166.3z"/>
		<path class="st16" d="M299.6-139.2l51.7,35.5l29.2-36.7L299.6-139.2z"/>
		<path class="st17" d="M312.1,184.3l12.1,45.9l28-63.8L312.1,184.3z"/>
		<path class="st18" d="M318.8,34.9l41.7,10.4L368.5-6L318.8,34.9z"/>
		<path class="st19" d="M299.6-139.2l19.2,34.6l32.6,0.8L299.6-139.2z"/>
		<path class="st20" d="M318.8-104.5l12.5,81.8l20-81L318.8-104.5z"/>
		<path class="st21" d="M331.3-22.7l-12.5,57.6L368.5-6L331.3-22.7z"/>
		<path class="st22" d="M304.2-272.3l58.8,45.5l6.3-27.5L304.2-272.3z"/>
		<path class="st23" d="M322.6,86.2l-10.4,98.1l40.1-17.9L322.6,86.2z"/>
		<path class="st1" d="M350.1,304l-45.5,58l50.9-2.9L350.1,304z"/>
		<path class="st24" d="M318.8,34.9l3.8,51.3l38-40.9L318.8,34.9z"/>
		<path class="st25" d="M304.2-272.3l-18.4,61.3l77.2-15.9L304.2-272.3z"/>
		<path class="st26" d="M177.8,349.1l-75.5,22.5l158.6-5.8L177.8,349.1z"/>
		<path class="st27" d="M311.3,289.4l-6.7,72.6l45.5-58L311.3,289.4z"/>
		<path class="st28" d="M-86-274l101,9.2l88.9-16.3L-86-274z"/>
		<path class="st29" d="M177.3-287.3l58.8,31.3l68-16.3L177.3-287.3z"/>
		<path class="st30" d="M243.7,167.6l68.4,16.7l10.4-98.1L243.7,167.6z"/>
		<path class="st31" d="M229.1,87l14.6,80.5l78.9-81.4L229.1,87z"/>
		<path class="st32" d="M258.3,253.5l53,35.9l12.9-59.3L258.3,253.5z"/>
		<path class="st33" d="M318.8-104.5l-64.3,5.8l76.8,76L318.8-104.5z"/>
		<path class="st34" d="M254.5-98.7l-28.8,58.8l105.6,17.1L254.5-98.7z"/>
		<path class="st35" d="M225.7-39.8l93.1,74.7l12.5-57.6L225.7-39.8z"/>
		<path class="st36" d="M239.1,315.7l65.5,46.3l6.7-72.6L239.1,315.7z"/>
		<path class="st37" d="M225.7-39.8l5.8,91.8l87.2-17.1L225.7-39.8z"/>
		<path class="st38" d="M318.8,34.9L231.6,52l91,34.2L318.8,34.9z"/>
		<path class="st39" d="M231.6,52L229.1,87l93.5-0.8L231.6,52z"/>
		<path class="st40" d="M312.1,184.3l-53.8,69.3l65.9-23.4L312.1,184.3z"/>
		<path class="st41" d="M239.1,315.7l21.7,50.1l43.8-3.8L239.1,315.7z"/>
		<path class="st42" d="M299.6-139.2l-45.1,40.5l64.3-5.8L299.6-139.2z"/>
		<path class="st43" d="M236.2-256l49.7,45.1l18.4-61.3L236.2-256z"/>
		<path class="st44" d="M243.7,167.6l14.6,86l53.8-69.3L243.7,167.6z"/>
		<path class="st45" d="M258.3,253.5l-19.2,62.2l72.2-26.3L258.3,253.5z"/>
		<path class="st46" d="M285.8-210.9l-56.8,77.6l70.5-5.8L285.8-210.9z"/>
		<path class="st47" d="M235.3-220.5l-6.3,87.2l56.8-77.6L235.3-220.5z"/>
		<path class="st48" d="M229.1-133.3l25.5,34.6l45.1-40.5L229.1-133.3z"/>
		<path class="st49" d="M225.7-39.8l-21.3,76.8l27.1,15L225.7-39.8z"/>
		<path class="st50" d="M236.2-256l-0.8,35.5l50.5,9.6L236.2-256z"/>
		<path class="st51" d="M15-264.8l41.3-3.8l47.6-12.5L15-264.8z"/>
		<path class="st52" d="M191.1-218.9l38,85.6l6.3-87.2L191.1-218.9z"/>
		<path class="st53" d="M201.1,289.8l38,25.9l19.2-62.2L201.1,289.8z"/>
		<path class="st54" d="M243.7,167.6l-43.8,68l58.4,17.9L243.7,167.6z"/>
		<path class="st3" d="M239.1,315.7l-61.3,33.4l83,16.7L239.1,315.7z"/>
		<path class="st55" d="M229.1,87l-61.8,19.2l76.4,61.3L229.1,87z"/>
		<path class="st30" d="M181.1,182.6l18.8,53l43.8-68L181.1,182.6z"/>
		<path class="st56" d="M199.9,235.6l1.3,54.3l57.2-36.3L199.9,235.6z"/>
		<path class="st57" d="M183.6-24.4l20.9,61.3l21.3-76.8L183.6-24.4z"/>
		<path class="st58" d="M229.1-133.3l-63.8,65.9l89.3-31.3L229.1-133.3z"/>
		<path class="st59" d="M165.2-67.4l60.5,27.5l28.8-58.8L165.2-67.4z"/>
		<path class="st60" d="M178.2-135.4l-12.9,68l63.8-65.9L178.2-135.4z"/>
		<path class="st61" d="M191.1-218.9l-12.9,83.5l50.9,2.1L191.1-218.9z"/>
		<path class="st62" d="M167.3,106.2l13.8,76.4l62.6-15L167.3,106.2z"/>
		<path class="st63" d="M191.1-218.9l44.2-1.7l0.8-35.5L191.1-218.9z"/>
		<path class="st64" d="M201.1,289.8l-23.4,59.3l61.3-33.4L201.1,289.8z"/>
		<path class="st65" d="M177.3-287.3l13.8,68.4l45.1-37.1L177.3-287.3z"/>
		<path class="st66" d="M204.5,36.9L229.1,87l2.5-35.1L204.5,36.9z"/>
		<path class="st67" d="M165.2-67.4l18.4,43l42.1-15.4L165.2-67.4z"/>
		<path class="st68" d="M204.5,36.9l-37.1,69.3L229.1,87L204.5,36.9z"/>
		<path class="st69" d="M118.9-16.5l14.2,81l50.5-88.9L118.9-16.5z"/>
		<path class="st70" d="M129.8-201.3l48.4,65.9l12.9-83.5L129.8-201.3z"/>
		<path class="st71" d="M181.1,182.6l-42.6,45.5l61.3,7.5L181.1,182.6z"/>
		<path class="st72" d="M118.9,314l58.8,35.1l23.4-59.3L118.9,314z"/>
		<path class="st73" d="M199.9,235.6l-61.3-7.5l62.6,61.8L199.9,235.6z"/>
		<path class="st74" d="M183.6-24.4l-50.5,88.9l71.4-27.5L183.6-24.4z"/>
		<path class="st75" d="M133.1,64.5l34.2,41.7l37.1-69.3L133.1,64.5z"/>
		<path class="st54" d="M138.5,228.1l-19.6,86l82.2-24.2L138.5,228.1z"/>
		<path class="st76" d="M75.9,360.4l-133.5,8.3l159.8,2.9L75.9,360.4z"/>
		<path class="st77" d="M103.9-281.1l25.9,79.7l47.6-86L103.9-281.1z"/>
		<path class="st78" d="M133.1-138.8l32.1,71.4l12.9-68L133.1-138.8z"/>
		<path class="st79" d="M129.8-201.3l3.3,62.6l45.1,3.3L129.8-201.3z"/>
		<path class="st80" d="M167.3,106.2L116,188.4l65.1-5.8L167.3,106.2z"/>
		<path class="st81" d="M177.3-287.3l-47.6,86l61.3-17.5L177.3-287.3z"/>
		<path class="st82" d="M124.3,101.6l-8.3,86.8l51.3-82.2L124.3,101.6z"/>
		<path class="st83" d="M116,188.4l22.5,39.6l42.6-45.5L116,188.4z"/>
		<path class="st84" d="M165.2-67.4l-46.3,50.9l64.7-7.9L165.2-67.4z"/>
		<path class="st85" d="M133.1-138.8l-23.8,57.2l55.9,14.2L133.1-138.8z"/>
		<path class="st72" d="M118.9,314l-16.7,57.6l75.5-22.5L118.9,314z"/>
		<path class="st86" d="M109.3-81.6l9.6,65.1l46.3-50.9L109.3-81.6z"/>
		<path class="st87" d="M133.1,64.5l-8.8,37.1l43,4.6L133.1,64.5z"/>
		<path class="st88" d="M56.3-268.5l14.2,77.6l33.4-90.1L56.3-268.5z"/>
		<path class="st89" d="M77.2,102.5l-12.5,78l51.3,7.9L77.2,102.5z"/>
		<path class="st90" d="M77.2,102.5l38.8,86l8.3-86.8L77.2,102.5z"/>
		<path class="st91" d="M103.9-281.1l-33.4,90.1l59.3-10.4L103.9-281.1z"/>
		<path class="st92" d="M129.8-201.3l-59.3,10.4l62.6,52.2L129.8-201.3z"/>
		<path class="st93" d="M118.9-16.5L43.4,64.1l89.7,0.4L118.9-16.5z"/>
		<path class="st94" d="M78,252.7l40.9,61.3l19.6-86L78,252.7z"/>
		<path class="st83" d="M116,188.4l-38,64.3l60.5-24.6L116,188.4z"/>
		<path class="st95" d="M70.5-190.9l-25,37.1l87.6,15L70.5-190.9z"/>
		<path class="st96" d="M52.6-105.4l56.8,23.8l23.8-57.2L52.6-105.4z"/>
		<path class="st97" d="M45.5-153.8l7.1,48.4l80.5-33.4L45.5-153.8z"/>
		<path class="st98" d="M77.2,102.5l47.2-0.8l8.8-37.1L77.2,102.5z"/>
		<path class="st99" d="M43.4,64.1l33.8,38.4l55.9-38L43.4,64.1z"/>
		<path class="st100" d="M57.1-33.6L43.4,64.1l75.5-80.5L57.1-33.6z"/>
		<path class="st101" d="M109.3-81.6l-52.2,48l61.8,17.1L109.3-81.6z"/>
		<path class="st102" d="M75.9,360.4l26.3,11.3l16.7-57.6L75.9,360.4z"/>
		<path class="st80" d="M64.7,180.5L78,252.7l38-64.3L64.7,180.5z"/>
		<path class="st30" d="M78,252.7l-25.5,30l66.4,31.3L78,252.7z"/>
		<path class="st103" d="M52.6,282.7l23.4,77.6l43-46.3L52.6,282.7z"/>
		<path class="st94" d="M-0.9,339.1l-56.8,29.6l133.5-8.3L-0.9,339.1z"/>
		<path class="st104" d="M52.6-105.4l4.6,71.8l52.2-48L52.6-105.4z"/>
		<path class="st105" d="M6.7,25.3l36.7,38.8l13.8-97.7L6.7,25.3z"/>
		<path class="st106" d="M2.9,111.6l-8.8,38l70.5,30.9L2.9,111.6z"/>
		<path class="st107" d="M56.3-268.5L15-264.8l55.5,73.9L56.3-268.5z"/>
		<path class="st108" d="M52.6,282.7l-53.4,56.3l76.8,21.3L52.6,282.7z"/>
		<path class="st106" d="M2.9,111.6l61.8,68.9l12.5-78L2.9,111.6z"/>
		<path class="st109" d="M64.7,180.5L2.1,221.4l76,31.3L64.7,180.5z"/>
		<path class="st110" d="M2.1,221.4l50.5,61.3l25.5-30L2.1,221.4z"/>
		<path class="st111" d="M43.4,64.1L2.9,111.6l74.3-9.2L43.4,64.1z"/>
		<path class="st112" d="M15-264.8l-37.6,59.7l93.1,14.2L15-264.8z"/>
		<path class="st113" d="M52.6-105.4l-73,29.2l77.6,42.6L52.6-105.4z"/>
		<path class="st114" d="M-22.6-205.1l68,51.3l25-37.1L-22.6-205.1z"/>
		<path class="st115" d="M2.1,221.4l-1.3,56.3l51.7,5L2.1,221.4z"/>
		<path class="st116" d="M-5.9,149.6l7.9,71.8l62.6-40.9L-5.9,149.6z"/>
		<path class="st117" d="M0.8,277.7l-1.7,61.3l53.4-56.3L0.8,277.7z"/>
		<path class="st118" d="M45.5-153.8l-61.3,25.9l68.4,22.5L45.5-153.8z"/>
		<path class="st119" d="M-28-25.2L6.7,25.3l50.5-58.8L-28-25.2z"/>
		<path class="st120" d="M-20.5-76.2L-28-25.2l85.1-8.3L-20.5-76.2z"/>
		<path class="st121" d="M-15.9-127.9l-4.6,51.7l73-29.2L-15.9-127.9z"/>
		<path class="st122" d="M-22.6-205.1l6.7,77.2l61.3-25.9L-22.6-205.1z"/>
		<path class="st123" d="M6.7,25.3l-3.8,86.4l40.5-47.6L6.7,25.3z"/>
		<path class="st124" d="M-5.9,149.6l-45.1,38l53,33.8L-5.9,149.6z"/>
		<path class="st125" d="M-59.3,88.7l62.2,23l3.8-86.4L-59.3,88.7z"/>
		<path class="st126" d="M-61,21.1l1.7,67.6L6.7,25.3L-61,21.1z"/>
		<path class="st127" d="M-86-274l63.4,68.9L15-264.8L-86-274z"/>
		<path class="st128" d="M-86-274l36.3,71.8l27.1-2.9L-86-274z"/>
		<path class="st112" d="M-22.6-205.1l-40.9,51.3l47.6,25.9L-22.6-205.1z"/>
		<path class="st129" d="M-72.2,271.5l71.4,67.6l1.7-61.3L-72.2,271.5z"/>
		<path class="st130" d="M-72.2,271.5l73,6.3l1.3-56.3L-72.2,271.5z"/>
		<path class="st131" d="M-64.3,213.5l-7.9,58l74.3-50.1L-64.3,213.5z"/>
		<path class="st132" d="M-28-25.2l-33,46.3l67.6,4.2L-28-25.2z"/>
		<path class="st133" d="M-72.2,271.5l14.6,97.2l56.8-29.6L-72.2,271.5z"/>
		<path class="st134" d="M-59.3,88.7l53.4,60.9l8.8-38L-59.3,88.7z"/>
		<path class="st135" d="M-49.7-202.2l-13.8,48.4l40.9-51.3L-49.7-202.2z"/>
		<path class="st136" d="M-50.9,187.6l-13.4,25.9l66.4,7.9L-50.9,187.6z"/>
		<path class="st137" d="M-59.3,88.7l8.3,98.9l45.1-38L-59.3,88.7z"/>
		<path class="st138" d="M-68-41.9L-28-25.2l7.5-50.9L-68-41.9z"/>
		<path class="st139" d="M-86.8-103.7l66.4,27.5l4.6-51.7L-86.8-103.7z"/>
		<path class="st140" d="M-63.5-153.8l-23.4,50.1l70.9-24.2L-63.5-153.8z"/>
		<path class="st141" d="M-86.8-103.7L-68-41.9l47.6-34.2L-86.8-103.7z"/>
		<path class="st142" d="M-59.3,88.7L-111,188.8l60.1-1.3L-59.3,88.7z"/>
		<path class="st113" d="M-68-41.9l7.1,63l33-46.3L-68-41.9z"/>
		<path class="st143" d="M-68-41.9l-44.2,10.9L-61,21.1L-68-41.9z"/>
		<path class="st144" d="M-153.2,100.8l42.1,88.1l51.7-100.2L-153.2,100.8z"/>
		<path class="st145" d="M-61,21.1l-68.9,39.2l70.5,28.4L-61,21.1z"/>
		<path class="st146" d="M-72.2,271.5l-44.2,12.1l58.8,85.1L-72.2,271.5z"/>
		<path class="st147" d="M-116.5,283.6l-23.4,81.4l82.2,3.8L-116.5,283.6z"/>
		<path class="st148" d="M-86-274l-21.3,15.9l57.6,55.9L-86-274z"/>
		<path class="st149" d="M-107.3-258.1l-5.4,58.8l63-2.9L-107.3-258.1z"/>
		<path class="st150" d="M-112.7-199.3l49.2,45.5l13.8-48.4L-112.7-199.3z"/>
		<path class="st151" d="M-111,188.8l46.7,24.6l13.4-25.9L-111,188.8z"/>
		<path class="st152" d="M-129.4,212.2l57.2,59.3l7.9-58L-129.4,212.2z"/>
		<path class="st153" d="M-107.7-127.1l20.9,23.4l23.4-50.1L-107.7-127.1z"/>
		<path class="st154" d="M-129.8,60.3l-23.4,40.5l93.9-12.1L-129.8,60.3z"/>
		<path class="st155" d="M-86.8-103.7l-25.5,72.6L-68-41.9L-86.8-103.7z"/>
		<path class="st156" d="M-112.3-31.1l-17.5,91.4L-61,21.1L-112.3-31.1z"/>
		<path class="st157" d="M-139.4-65.3l27.1,34.2l25.5-72.6L-139.4-65.3z"/>
		<path class="st158" d="M-129.4,212.2l12.9,71.4l44.2-12.1L-129.4,212.2z"/>
		<path class="st159" d="M-112.7-199.3l5,72.2l44.2-26.7L-112.7-199.3z"/>
		<path class="st160" d="M-111,188.8l-18.4,23.4l65.1,1.3L-111,188.8z"/>
		<path class="st161" d="M-107.7-127.1l-31.7,61.8l52.6-38.4L-107.7-127.1z"/>
	</g>
</g>
<rect x="7.4" y="125.5" class="st162" width="16.8" height="2.3"/>
<polygon class="st163" points="270,198.4 272.5,196.5 276.5,200.1 274.9,203.8 273.6,205.6 267.5,205.7 "/>
</svg>
